<?xml version="1.0" encoding="UTF-8" standalone="no"?>
<!DOCTYPE svg PUBLIC "-//W3C//DTD SVG 1.1//EN"
 "http://www.w3.org/Graphics/SVG/1.1/DTD/svg11.dtd">
<!-- Generated by graphviz version 2.43.0 (0)
 -->
<!-- Title: sourcetree Pages: 1 -->
<svg width="2229pt" height="260pt"
 viewBox="0.00 0.00 2229.00 260.00" xmlns="http://www.w3.org/2000/svg" xmlns:xlink="http://www.w3.org/1999/xlink">
<g id="graph0" class="graph" transform="scale(1 1) rotate(0) translate(4 256)">
<title>sourcetree</title>
<polygon fill="white" stroke="transparent" points="-4,4 -4,-256 2225,-256 2225,4 -4,4"/>
<!-- MulleWebServer -->
<g id="node1" class="node">
<title>MulleWebServer</title>
<polygon fill="yellow" stroke="black" points="2046.5,-252 1910.5,-252 1910.5,-216 2046.5,-216 2046.5,-252"/>
<text text-anchor="middle" x="1978.5" y="-230.3" font-family="Times,serif" font-size="14.00">MulleWebServer</text>
</g>
<!-- MulleCivetWeb -->
<g id="node2" class="node">
<title>MulleCivetWeb</title>
<polygon fill="lightgrey" stroke="black" points="1826,-180 1701,-180 1701,-144 1826,-144 1826,-180"/>
<text text-anchor="middle" x="1763.5" y="-158.3" font-family="Times,serif" font-size="14.00">MulleCivetWeb</text>
</g>
<!-- MulleWebServer&#45;&gt;MulleCivetWeb -->
<g id="edge14" class="edge">
<title>MulleWebServer&#45;&gt;MulleCivetWeb</title>
<path fill="none" stroke="black" d="M1926.18,-215.97C1895.88,-206.1 1857.55,-193.62 1825.71,-183.25"/>
<polygon fill="black" stroke="black" points="1826.65,-179.88 1816.05,-180.11 1824.48,-186.53 1826.65,-179.88"/>
</g>
<!-- MulleObjCJSMNFoundation -->
<g id="node15" class="node">
<title>MulleObjCJSMNFoundation</title>
<polygon fill="lightgrey" stroke="black" points="2085.5,-180 1871.5,-180 1871.5,-144 2085.5,-144 2085.5,-180"/>
<text text-anchor="middle" x="1978.5" y="-158.3" font-family="Times,serif" font-size="14.00">MulleObjCJSMNFoundation</text>
</g>
<!-- MulleWebServer&#45;&gt;MulleObjCJSMNFoundation -->
<g id="edge15" class="edge">
<title>MulleWebServer&#45;&gt;MulleObjCJSMNFoundation</title>
<path fill="none" stroke="black" d="M1978.5,-215.7C1978.5,-207.98 1978.5,-198.71 1978.5,-190.11"/>
<polygon fill="black" stroke="black" points="1982,-190.1 1978.5,-180.1 1975,-190.1 1982,-190.1"/>
</g>
<!-- mulle&#45;objc&#45;list -->
<g id="node17" class="node">
<title>mulle&#45;objc&#45;list</title>
<polygon fill="lightgrey" stroke="black" points="2221,-180 2104,-180 2104,-144 2221,-144 2221,-180"/>
<text text-anchor="middle" x="2162.5" y="-158.3" font-family="Times,serif" font-size="14.00">mulle&#45;objc&#45;list</text>
</g>
<!-- MulleWebServer&#45;&gt;mulle&#45;objc&#45;list -->
<g id="edge16" class="edge">
<title>MulleWebServer&#45;&gt;mulle&#45;objc&#45;list</title>
<path fill="none" stroke="black" d="M2023.51,-215.88C2049,-206.18 2081.07,-193.98 2107.98,-183.74"/>
<polygon fill="black" stroke="black" points="2109.53,-186.9 2117.63,-180.07 2107.04,-180.35 2109.53,-186.9"/>
</g>
<!-- MulleFoundation -->
<g id="node3" class="node">
<title>MulleFoundation</title>
<polygon fill="lightgrey" stroke="black" points="1038,-108 901,-108 901,-72 1038,-72 1038,-108"/>
<text text-anchor="middle" x="969.5" y="-86.3" font-family="Times,serif" font-size="14.00">MulleFoundation</text>
</g>
<!-- MulleCivetWeb&#45;&gt;MulleFoundation -->
<g id="edge1" class="edge">
<title>MulleCivetWeb&#45;&gt;MulleFoundation</title>
<path fill="none" stroke="black" d="M1700.86,-155.48C1557.54,-142.84 1205.93,-111.84 1048.25,-97.94"/>
<polygon fill="black" stroke="black" points="1048.42,-94.44 1038.15,-97.05 1047.81,-101.42 1048.42,-94.44"/>
</g>
<!-- MulleObjCHTTPFoundation -->
<g id="node4" class="node">
<title>MulleObjCHTTPFoundation</title>
<polygon fill="lightgrey" stroke="black" points="1817,-108 1604,-108 1604,-72 1817,-72 1817,-108"/>
<text text-anchor="middle" x="1710.5" y="-86.3" font-family="Times,serif" font-size="14.00">MulleObjCHTTPFoundation</text>
</g>
<!-- MulleCivetWeb&#45;&gt;MulleObjCHTTPFoundation -->
<g id="edge2" class="edge">
<title>MulleCivetWeb&#45;&gt;MulleObjCHTTPFoundation</title>
<path fill="none" stroke="black" d="M1750.4,-143.7C1744.11,-135.39 1736.45,-125.28 1729.54,-116.14"/>
<polygon fill="black" stroke="black" points="1732.28,-113.96 1723.45,-108.1 1726.7,-118.19 1732.28,-113.96"/>
</g>
<!-- src/civetweb -->
<g id="node5" class="node">
<title>src/civetweb</title>
<polygon fill="lightgrey" stroke="black" points="1942,-108 1835,-108 1835,-72 1942,-72 1942,-108"/>
<text text-anchor="middle" x="1888.5" y="-86.3" font-family="Times,serif" font-size="14.00">src/civetweb</text>
</g>
<!-- MulleCivetWeb&#45;&gt;src/civetweb -->
<g id="edge3" class="edge">
<title>MulleCivetWeb&#45;&gt;src/civetweb</title>
<path fill="none" stroke="black" d="M1794.08,-143.88C1810.57,-134.64 1831.12,-123.13 1848.84,-113.21"/>
<polygon fill="black" stroke="black" points="1850.79,-116.13 1857.8,-108.19 1847.37,-110.02 1850.79,-116.13"/>
</g>
<!-- MulleObjCArchiverFoundation -->
<g id="node6" class="node">
<title>MulleObjCArchiverFoundation</title>
<polygon fill="lightgrey" stroke="black" points="233,-36 0,-36 0,0 233,0 233,-36"/>
<text text-anchor="middle" x="116.5" y="-14.3" font-family="Times,serif" font-size="14.00">MulleObjCArchiverFoundation</text>
</g>
<!-- MulleFoundation&#45;&gt;MulleObjCArchiverFoundation -->
<g id="edge4" class="edge">
<title>MulleFoundation&#45;&gt;MulleObjCArchiverFoundation</title>
<path fill="none" stroke="black" d="M900.87,-85.44C773.39,-78.51 491.19,-61.69 243.52,-36.18"/>
<polygon fill="black" stroke="black" points="243.55,-32.66 233.24,-35.11 242.83,-39.62 243.55,-32.66"/>
</g>
<!-- MulleObjCCalendarFoundation -->
<g id="node7" class="node">
<title>MulleObjCCalendarFoundation</title>
<polygon fill="lightgrey" stroke="black" points="488,-36 251,-36 251,0 488,0 488,-36"/>
<text text-anchor="middle" x="369.5" y="-14.3" font-family="Times,serif" font-size="14.00">MulleObjCCalendarFoundation</text>
</g>
<!-- MulleFoundation&#45;&gt;MulleObjCCalendarFoundation -->
<g id="edge5" class="edge">
<title>MulleFoundation&#45;&gt;MulleObjCCalendarFoundation</title>
<path fill="none" stroke="black" d="M900.66,-81.71C810.77,-72.09 648.24,-54.37 498.35,-36.09"/>
<polygon fill="black" stroke="black" points="498.39,-32.57 488.04,-34.83 497.54,-39.52 498.39,-32.57"/>
</g>
<!-- MulleObjCDecimalFoundation -->
<g id="node8" class="node">
<title>MulleObjCDecimalFoundation</title>
<polygon fill="lightgrey" stroke="black" points="736.5,-36 506.5,-36 506.5,0 736.5,0 736.5,-36"/>
<text text-anchor="middle" x="621.5" y="-14.3" font-family="Times,serif" font-size="14.00">MulleObjCDecimalFoundation</text>
</g>
<!-- MulleFoundation&#45;&gt;MulleObjCDecimalFoundation -->
<g id="edge6" class="edge">
<title>MulleFoundation&#45;&gt;MulleObjCDecimalFoundation</title>
<path fill="none" stroke="black" d="M900.75,-75.17C847.94,-64.55 774.42,-49.76 716.08,-38.02"/>
<polygon fill="black" stroke="black" points="716.6,-34.56 706.11,-36.02 715.22,-41.42 716.6,-34.56"/>
</g>
<!-- MulleObjCKVCFoundation -->
<g id="node9" class="node">
<title>MulleObjCKVCFoundation</title>
<polygon fill="lightgrey" stroke="black" points="958,-36 755,-36 755,0 958,0 958,-36"/>
<text text-anchor="middle" x="856.5" y="-14.3" font-family="Times,serif" font-size="14.00">MulleObjCKVCFoundation</text>
</g>
<!-- MulleFoundation&#45;&gt;MulleObjCKVCFoundation -->
<g id="edge7" class="edge">
<title>MulleFoundation&#45;&gt;MulleObjCKVCFoundation</title>
<path fill="none" stroke="black" d="M941.86,-71.88C927.08,-62.72 908.71,-51.34 892.8,-41.48"/>
<polygon fill="black" stroke="black" points="894.59,-38.48 884.25,-36.19 890.91,-44.43 894.59,-38.48"/>
</g>
<!-- MulleObjCMathFoundation -->
<g id="node10" class="node">
<title>MulleObjCMathFoundation</title>
<polygon fill="lightgrey" stroke="black" points="1186.5,-36 976.5,-36 976.5,0 1186.5,0 1186.5,-36"/>
<text text-anchor="middle" x="1081.5" y="-14.3" font-family="Times,serif" font-size="14.00">MulleObjCMathFoundation</text>
</g>
<!-- MulleFoundation&#45;&gt;MulleObjCMathFoundation -->
<g id="edge8" class="edge">
<title>MulleFoundation&#45;&gt;MulleObjCMathFoundation</title>
<path fill="none" stroke="black" d="M996.9,-71.88C1011.41,-62.81 1029.42,-51.55 1045.09,-41.76"/>
<polygon fill="black" stroke="black" points="1047.37,-44.46 1054,-36.19 1043.66,-38.52 1047.37,-44.46"/>
</g>
<!-- MulleObjCOSFoundation -->
<g id="node11" class="node">
<title>MulleObjCOSFoundation</title>
<polygon fill="lightgrey" stroke="black" points="1398.5,-36 1204.5,-36 1204.5,0 1398.5,0 1398.5,-36"/>
<text text-anchor="middle" x="1301.5" y="-14.3" font-family="Times,serif" font-size="14.00">MulleObjCOSFoundation</text>
</g>
<!-- MulleFoundation&#45;&gt;MulleObjCOSFoundation -->
<g id="edge9" class="edge">
<title>MulleFoundation&#45;&gt;MulleObjCOSFoundation</title>
<path fill="none" stroke="black" d="M1038.29,-74.5C1088.27,-63.96 1156.39,-49.6 1210.81,-38.12"/>
<polygon fill="black" stroke="black" points="1211.74,-41.5 1220.81,-36.01 1210.3,-34.65 1211.74,-41.5"/>
</g>
<!-- MulleObjCUnicodeFoundation -->
<g id="node12" class="node">
<title>MulleObjCUnicodeFoundation</title>
<polygon fill="lightgrey" stroke="black" points="1647,-36 1416,-36 1416,0 1647,0 1647,-36"/>
<text text-anchor="middle" x="1531.5" y="-14.3" font-family="Times,serif" font-size="14.00">MulleObjCUnicodeFoundation</text>
</g>
<!-- MulleFoundation&#45;&gt;MulleObjCUnicodeFoundation -->
<g id="edge10" class="edge">
<title>MulleFoundation&#45;&gt;MulleObjCUnicodeFoundation</title>
<path fill="none" stroke="black" d="M1038.2,-81.03C1122.37,-71.18 1269.62,-53.72 1405.8,-36.21"/>
<polygon fill="black" stroke="black" points="1406.53,-39.64 1416,-34.9 1405.63,-32.7 1406.53,-39.64"/>
</g>
<!-- mulle&#45;http -->
<g id="node13" class="node">
<title>mulle&#45;http</title>
<polygon fill="lightgrey" stroke="black" points="1756,-36 1665,-36 1665,0 1756,0 1756,-36"/>
<text text-anchor="middle" x="1710.5" y="-14.3" font-family="Times,serif" font-size="14.00">mulle&#45;http</text>
</g>
<!-- MulleObjCHTTPFoundation&#45;&gt;mulle&#45;http -->
<g id="edge11" class="edge">
<title>MulleObjCHTTPFoundation&#45;&gt;mulle&#45;http</title>
<path fill="none" stroke="black" d="M1710.5,-71.7C1710.5,-63.98 1710.5,-54.71 1710.5,-46.11"/>
<polygon fill="black" stroke="black" points="1714,-46.1 1710.5,-36.1 1707,-46.1 1714,-46.1"/>
</g>
<!-- MulleObjCInetFoundation -->
<g id="node14" class="node">
<title>MulleObjCInetFoundation</title>
<polygon fill="lightgrey" stroke="black" points="1975,-36 1774,-36 1774,0 1975,0 1975,-36"/>
<text text-anchor="middle" x="1874.5" y="-14.3" font-family="Times,serif" font-size="14.00">MulleObjCInetFoundation</text>
</g>
<!-- MulleObjCHTTPFoundation&#45;&gt;MulleObjCInetFoundation -->
<g id="edge12" class="edge">
<title>MulleObjCHTTPFoundation&#45;&gt;MulleObjCInetFoundation</title>
<path fill="none" stroke="black" d="M1750.62,-71.88C1773.14,-62.26 1801.42,-50.19 1825.27,-40.01"/>
<polygon fill="black" stroke="black" points="1826.69,-43.21 1834.51,-36.07 1823.94,-36.77 1826.69,-43.21"/>
</g>
<!-- src/jsmn.h -->
<g id="node16" class="node">
<title>src/jsmn.h</title>
<polygon fill="lightgrey" stroke="black" points="2051,-108 1960,-108 1960,-72 2051,-72 2051,-108"/>
<text text-anchor="middle" x="2005.5" y="-86.3" font-family="Times,serif" font-size="14.00">src/jsmn.h</text>
</g>
<!-- MulleObjCJSMNFoundation&#45;&gt;src/jsmn.h -->
<g id="edge13" class="edge">
<title>MulleObjCJSMNFoundation&#45;&gt;src/jsmn.h</title>
<path fill="none" stroke="black" d="M1985.17,-143.7C1988.21,-135.81 1991.88,-126.3 1995.26,-117.55"/>
<polygon fill="black" stroke="black" points="1998.57,-118.69 1998.9,-108.1 1992.04,-116.17 1998.57,-118.69"/>
</g>
</g>
</svg>
