<?xml version="1.0" encoding="UTF-8" standalone="no"?>
<!DOCTYPE svg PUBLIC "-//W3C//DTD SVG 1.1//EN"
 "http://www.w3.org/Graphics/SVG/1.1/DTD/svg11.dtd">
<!-- Generated by graphviz version 2.43.0 (0)
 -->
<!-- Title: sourcetree Pages: 1 -->
<svg width="925pt" height="260pt"
 viewBox="0.00 0.00 925.00 260.00" xmlns="http://www.w3.org/2000/svg" xmlns:xlink="http://www.w3.org/1999/xlink">
<g id="graph0" class="graph" transform="scale(1 1) rotate(0) translate(4 256)">
<title>sourcetree</title>
<polygon fill="white" stroke="transparent" points="-4,4 -4,-256 921,-256 921,4 -4,4"/>
<!-- MulleWebServer -->
<g id="node1" class="node">
<title>MulleWebServer</title>
<polygon fill="yellow" stroke="black" points="728.5,-252 592.5,-252 592.5,-216 728.5,-216 728.5,-252"/>
<text text-anchor="middle" x="660.5" y="-230.3" font-family="Times,serif" font-size="14.00">MulleWebServer</text>
</g>
<!-- MulleCivetWeb -->
<g id="node4" class="node">
<title>MulleCivetWeb</title>
<g id="a_node4"><a xlink:href="https://github.com/MulleWeb/MulleCivetWeb" xlink:title="MulleCivetWeb">
<polygon fill="lightgrey" stroke="black" points="629,-180 504,-180 504,-144 629,-144 629,-180"/>
<text text-anchor="middle" x="566.5" y="-158.3" font-family="Times,serif" font-size="14.00">MulleCivetWeb</text>
</a>
</g>
</g>
<!-- MulleWebServer&#45;&gt;MulleCivetWeb -->
<g id="edge9" class="edge">
<title>MulleWebServer&#45;&gt;MulleCivetWeb</title>
<path fill="none" stroke="black" d="M637.26,-215.7C625.31,-206.8 610.58,-195.82 597.65,-186.2"/>
<polygon fill="black" stroke="black" points="599.58,-183.27 589.47,-180.1 595.4,-188.88 599.58,-183.27"/>
</g>
<!-- MulleObjCJSMNFoundation -->
<g id="node11" class="node">
<title>MulleObjCJSMNFoundation</title>
<g id="a_node11"><a xlink:href="https://github.com/MulleWeb/MulleObjCJSMNFoundation" xlink:title="MulleObjCJSMNFoundation">
<polygon fill="lightgrey" stroke="black" points="901.5,-180 687.5,-180 687.5,-144 901.5,-144 901.5,-180"/>
<text text-anchor="middle" x="794.5" y="-158.3" font-family="Times,serif" font-size="14.00">MulleObjCJSMNFoundation</text>
</a>
</g>
</g>
<!-- MulleWebServer&#45;&gt;MulleObjCJSMNFoundation -->
<g id="edge10" class="edge">
<title>MulleWebServer&#45;&gt;MulleObjCJSMNFoundation</title>
<path fill="none" stroke="black" d="M693.28,-215.88C711.13,-206.55 733.4,-194.92 752.5,-184.94"/>
<polygon fill="black" stroke="black" points="754.35,-187.92 761.59,-180.19 751.11,-181.72 754.35,-187.92"/>
</g>
<!-- civetweb -->
<g id="node2" class="node">
<title>civetweb</title>
<g id="a_node2"><a xlink:href="https://github.com/mulle-nat/civetweb" xlink:title="civetweb">
<polygon fill="lightgrey" stroke="black" points="398.5,-108 318.5,-108 318.5,-72 398.5,-72 398.5,-108"/>
<text text-anchor="middle" x="358.5" y="-86.3" font-family="Times,serif" font-size="14.00">civetweb</text>
</a>
</g>
</g>
<!-- jsmn.h -->
<g id="node3" class="node">
<title>jsmn.h</title>
<g id="a_node3"><a xlink:href="https://raw.githubusercontent.com/mulle-nat//jsmn" xlink:title="jsmn.h">
<polygon fill="lightgrey" stroke="black" points="868,-108 803,-108 803,-72 868,-72 868,-108"/>
<text text-anchor="middle" x="835.5" y="-86.3" font-family="Times,serif" font-size="14.00">jsmn.h</text>
</a>
</g>
</g>
<!-- MulleCivetWeb&#45;&gt;civetweb -->
<g id="edge1" class="edge">
<title>MulleCivetWeb&#45;&gt;civetweb</title>
<path fill="none" stroke="black" d="M514.89,-143.97C486,-134.4 449.11,-122.11 408.22,-108.23"/>
<polygon fill="black" stroke="black" points="409.19,-104.86 398.6,-104.96 406.94,-111.49 409.19,-104.86"/>
</g>
<!-- MulleFoundation -->
<g id="node5" class="node">
<title>MulleFoundation</title>
<g id="a_node5"><a xlink:href="https://github.com/MulleFoundation/MulleFoundation" xlink:title="MulleFoundation">
<polygon fill="lightgrey" stroke="black" points="554,-108 417,-108 417,-72 554,-72 554,-108"/>
<text text-anchor="middle" x="485.5" y="-86.3" font-family="Times,serif" font-size="14.00">MulleFoundation</text>
</a>
</g>
</g>
<!-- MulleCivetWeb&#45;&gt;MulleFoundation -->
<g id="edge2" class="edge">
<title>MulleCivetWeb&#45;&gt;MulleFoundation</title>
<path fill="none" stroke="black" d="M546.48,-143.7C536.37,-134.97 523.96,-124.24 512.98,-114.75"/>
<polygon fill="black" stroke="black" points="515.15,-111.99 505.29,-108.1 510.57,-117.29 515.15,-111.99"/>
</g>
<!-- MulleObjCHTTPFoundation -->
<g id="node6" class="node">
<title>MulleObjCHTTPFoundation</title>
<g id="a_node6"><a xlink:href="https://github.com/MulleWeb/MulleObjCHTTPFoundation" xlink:title="MulleObjCHTTPFoundation">
<polygon fill="lightgrey" stroke="black" points="785,-108 572,-108 572,-72 785,-72 785,-108"/>
<text text-anchor="middle" x="678.5" y="-86.3" font-family="Times,serif" font-size="14.00">MulleObjCHTTPFoundation</text>
</a>
</g>
</g>
<!-- MulleCivetWeb&#45;&gt;MulleObjCHTTPFoundation -->
<g id="edge3" class="edge">
<title>MulleCivetWeb&#45;&gt;MulleObjCHTTPFoundation</title>
<path fill="none" stroke="black" d="M593.9,-143.88C608.41,-134.81 626.42,-123.55 642.09,-113.76"/>
<polygon fill="black" stroke="black" points="644.37,-116.46 651,-108.19 640.66,-110.52 644.37,-116.46"/>
</g>
<!-- MulleObjCCalendarFoundation -->
<g id="node7" class="node">
<title>MulleObjCCalendarFoundation</title>
<g id="a_node7"><a xlink:href="https://github.com/MulleFoundation/MulleObjCCalendarFoundation" xlink:title="MulleObjCCalendarFoundation">
<polygon fill="lightgrey" stroke="black" points="237,-36 0,-36 0,0 237,0 237,-36"/>
<text text-anchor="middle" x="118.5" y="-14.3" font-family="Times,serif" font-size="14.00">MulleObjCCalendarFoundation</text>
</a>
</g>
</g>
<!-- MulleFoundation&#45;&gt;MulleObjCCalendarFoundation -->
<g id="edge4" class="edge">
<title>MulleFoundation&#45;&gt;MulleObjCCalendarFoundation</title>
<path fill="none" stroke="black" d="M416.62,-73.86C413.54,-73.22 410.49,-72.6 407.5,-72 347.59,-59.98 280.46,-47.6 226,-37.84"/>
<polygon fill="black" stroke="black" points="226.44,-34.36 215.98,-36.04 225.2,-41.25 226.44,-34.36"/>
</g>
<!-- MulleObjCDecimalFoundation -->
<g id="node8" class="node">
<title>MulleObjCDecimalFoundation</title>
<g id="a_node8"><a xlink:href="https://github.com/MulleFoundation/MulleObjCDecimalFoundation" xlink:title="MulleObjCDecimalFoundation">
<polygon fill="lightgrey" stroke="black" points="485.5,-36 255.5,-36 255.5,0 485.5,0 485.5,-36"/>
<text text-anchor="middle" x="370.5" y="-14.3" font-family="Times,serif" font-size="14.00">MulleObjCDecimalFoundation</text>
</a>
</g>
</g>
<!-- MulleFoundation&#45;&gt;MulleObjCDecimalFoundation -->
<g id="edge5" class="edge">
<title>MulleFoundation&#45;&gt;MulleObjCDecimalFoundation</title>
<path fill="none" stroke="black" d="M457.37,-71.88C442.33,-62.72 423.63,-51.34 407.44,-41.48"/>
<polygon fill="black" stroke="black" points="409.1,-38.4 398.74,-36.19 405.46,-44.38 409.1,-38.4"/>
</g>
<!-- MulleObjCOSFoundation -->
<g id="node9" class="node">
<title>MulleObjCOSFoundation</title>
<g id="a_node9"><a xlink:href="https://github.com/MulleFoundation/MulleObjCOSFoundation" xlink:title="MulleObjCOSFoundation">
<polygon fill="lightgrey" stroke="black" points="697.5,-36 503.5,-36 503.5,0 697.5,0 697.5,-36"/>
<text text-anchor="middle" x="600.5" y="-14.3" font-family="Times,serif" font-size="14.00">MulleObjCOSFoundation</text>
</a>
</g>
</g>
<!-- MulleFoundation&#45;&gt;MulleObjCOSFoundation -->
<g id="edge6" class="edge">
<title>MulleFoundation&#45;&gt;MulleObjCOSFoundation</title>
<path fill="none" stroke="black" d="M513.63,-71.88C528.67,-62.72 547.37,-51.34 563.56,-41.48"/>
<polygon fill="black" stroke="black" points="565.54,-44.38 572.26,-36.19 561.9,-38.4 565.54,-44.38"/>
</g>
<!-- MulleObjCInetFoundation -->
<g id="node10" class="node">
<title>MulleObjCInetFoundation</title>
<g id="a_node10"><a xlink:href="https://github.com/MulleWeb/MulleObjCInetFoundation" xlink:title="MulleObjCInetFoundation">
<polygon fill="lightgrey" stroke="black" points="917,-36 716,-36 716,0 917,0 917,-36"/>
<text text-anchor="middle" x="816.5" y="-14.3" font-family="Times,serif" font-size="14.00">MulleObjCInetFoundation</text>
</a>
</g>
</g>
<!-- MulleObjCHTTPFoundation&#45;&gt;MulleObjCInetFoundation -->
<g id="edge7" class="edge">
<title>MulleObjCHTTPFoundation&#45;&gt;MulleObjCInetFoundation</title>
<path fill="none" stroke="black" d="M712.26,-71.88C730.72,-62.51 753.78,-50.81 773.52,-40.8"/>
<polygon fill="black" stroke="black" points="775.28,-43.83 782.61,-36.19 772.11,-37.59 775.28,-43.83"/>
</g>
<!-- MulleObjCJSMNFoundation&#45;&gt;jsmn.h -->
<g id="edge8" class="edge">
<title>MulleObjCJSMNFoundation&#45;&gt;jsmn.h</title>
<path fill="none" stroke="black" d="M804.63,-143.7C809.35,-135.64 815.06,-125.89 820.28,-116.98"/>
<polygon fill="black" stroke="black" points="823.45,-118.5 825.48,-108.1 817.41,-114.96 823.45,-118.5"/>
</g>
</g>
</svg>
